<?xml version="1.0" standalone="no"?>
<!DOCTYPE svg PUBLIC "-//W3C//DTD SVG 20010904//EN"
 "http://www.w3.org/TR/2001/REC-SVG-20010904/DTD/svg10.dtd">
<svg version="1.0" xmlns="http://www.w3.org/2000/svg"
 width="700.000000pt" height="700.000000pt" viewBox="0 0 700.000000 700.000000"
 preserveAspectRatio="xMidYMid meet">
<metadata>
Created by potrace 1.14, written by Peter Selinger 2001-2017
</metadata>
<g transform="translate(0.000000,700.000000) scale(0.100000,-0.100000)"
fill="#000000" stroke="none">
<path d="M2130 3501 c0 -1777 3 -3231 6 -3231 10 0 42 18 819 468 50 29 98 58
107 66 16 12 17 168 15 2701 l-2 2687 -215 125 c-118 69 -235 136 -260 150
-25 14 -133 76 -240 139 -108 62 -203 116 -213 120 -16 6 -17 -174 -17 -3225z"/>
<path d="M3500 5904 c0 -68 0 -2047 0 -2101 l0 -51 110 63 c60 35 129 75 152
88 24 14 99 57 168 97 69 40 213 123 320 185 l195 112 0 547 c1 301 -2 550 -5
555 -4 7 -347 208 -560 328 -19 11 -107 62 -194 113 -88 50 -166 94 -173 97
-9 4 -13 -6 -13 -33z"/>
<path d="M4836 4072 c-3 -4 4 -9 15 -9 23 -2 25 3 4 10 -8 4 -16 3 -19 -1z"/>
<path d="M4804 4049 c-5 -8 -10 -32 -10 -53 -1 -26 1 -35 6 -25 5 8 7 27 6 42
-2 15 0 30 4 32 11 6 22 -24 14 -37 -4 -6 3 -5 15 1 21 12 29 41 11 41 -5 0
-7 -8 -4 -17 4 -12 0 -10 -14 6 -15 19 -21 21 -28 10z"/>
<path d="M4754 4016 c4 -13 2 -17 -7 -13 -8 3 -20 1 -28 -5 -11 -8 -11 -9 2
-5 9 3 26 -1 38 -9 12 -9 21 -11 21 -5 0 6 -5 11 -11 11 -8 0 -7 5 1 15 7 9
10 18 6 22 -3 3 -6 0 -6 -8 0 -12 -2 -11 -11 1 -9 12 -10 12 -5 -4z"/>
<path d="M4847 3982 c6 -15 4 -15 -9 -4 -14 11 -17 10 -23 -7 -3 -12 -11 -21
-16 -21 -5 0 -9 -5 -9 -11 0 -8 4 -8 15 1 15 12 35 6 35 -11 0 -6 -4 -8 -9 -5
-12 8 -41 -4 -41 -16 0 -5 4 -6 10 -3 20 12 51 14 48 3 -2 -6 -14 -12 -26 -13
-12 -1 -25 -5 -29 -10 -5 -4 3 -4 17 0 22 7 23 6 11 -8 -22 -28 -47 -5 -46 42
1 34 -1 38 -14 28 -12 -10 -14 -9 -8 5 8 22 -9 33 -27 19 -10 -9 -15 -7 -20 5
-4 9 -9 14 -12 11 -3 -3 -2 -12 2 -19 4 -7 9 -19 10 -28 1 -8 2 -19 4 -25 4
-17 0 -35 -8 -35 -4 0 -8 8 -9 18 -3 39 -11 73 -18 80 -4 4 -4 -4 0 -18 7 -22
6 -23 -9 -11 -10 9 -16 10 -16 2 0 -6 -3 -10 -7 -10 -27 4 -35 -1 -23 -16 14
-16 0 -21 -16 -5 -6 6 -15 6 -24 0 -16 -10 -12 -12 34 -14 16 -1 32 -8 34 -15
3 -8 0 -11 -7 -7 -6 4 -11 2 -11 -3 0 -6 -5 -11 -11 -11 -5 0 -7 5 -4 10 3 6
1 10 -5 10 -7 0 -10 -6 -7 -12 2 -7 13 -12 23 -10 10 2 33 4 51 5 18 1 39 11
48 22 l16 20 -3 -20 c-4 -27 -30 -45 -58 -40 -12 2 -30 0 -40 -5 -18 -10 -65
15 -55 30 3 4 -3 11 -13 15 -19 7 -28 4 -24 -8 1 -4 -6 -7 -15 -5 -14 2 -18
-4 -18 -26 0 -16 -6 -31 -12 -33 -6 -2 -9 7 -8 21 2 19 -1 23 -13 18 -10 -3
-12 -7 -4 -10 7 -2 12 -8 12 -13 0 -6 -4 -7 -10 -4 -5 3 -10 2 -10 -2 0 -5 9
-14 21 -21 12 -7 18 -16 15 -19 -3 -3 -13 0 -23 8 -14 12 -15 12 -9 0 6 -9 4
-12 -5 -9 -8 3 -13 17 -13 31 1 15 -2 24 -7 21 -4 -2 -6 -11 -2 -19 3 -8 0
-15 -6 -15 -6 0 -11 5 -11 10 0 6 -5 10 -11 10 -8 0 -7 -6 2 -17 12 -15 12
-16 -4 -10 -10 4 -16 3 -13 -2 3 -5 -2 -15 -11 -22 -14 -12 -15 -11 -8 10 6
21 5 22 -8 10 -13 -12 -13 -16 0 -36 10 -14 11 -23 4 -23 -5 0 -17 12 -24 26
-9 17 -17 23 -21 15 -4 -6 -2 -11 3 -11 6 0 11 -5 11 -10 0 -6 -11 -8 -27 -4
-16 4 -25 4 -22 0 4 -4 19 -8 35 -10 15 -2 30 -8 32 -14 3 -11 -28 -9 -46 2
-10 6 -10 -100 1 -110 14 -14 7 -26 -8 -14 -9 7 -18 10 -22 6 -3 -3 -1 -6 5
-6 7 0 12 -4 12 -9 0 -6 -9 -9 -20 -8 -11 1 -19 6 -16 12 3 8 -11 11 -40 10
-27 -2 -48 3 -55 11 -6 8 -15 11 -20 8 -5 -3 -9 -1 -9 5 0 17 17 21 29 7 6 -7
23 -13 36 -13 23 0 24 1 8 13 -17 12 -16 13 5 11 12 -1 22 -7 22 -14 0 -7 5
-13 11 -13 5 0 8 4 5 9 -3 5 2 15 11 22 14 12 15 11 9 -9 -4 -12 -3 -22 2 -22
10 0 9 106 -1 116 -4 4 -10 4 -14 0 -4 -4 -3 -10 2 -14 6 -4 11 -16 13 -27 2
-18 1 -18 -18 4 -17 20 -23 22 -33 11 -9 -10 -9 -11 1 -6 6 4 12 3 12 -2 0
-16 -13 -22 -27 -11 -10 9 -13 8 -13 -1 0 -7 -7 -10 -16 -6 -8 3 -12 2 -9 -4
6 -10 -29 -33 -38 -24 -3 3 -4 -6 -3 -19 2 -20 -1 -25 -15 -24 -11 1 -19 8
-20 17 0 10 -2 11 -6 2 -2 -6 -9 -10 -14 -6 -5 3 -8 0 -7 -8 2 -7 -3 -12 -10
-10 -8 1 -11 -2 -7 -8 3 -5 -1 -13 -10 -16 -12 -5 -13 -9 -4 -21 10 -11 9 -18
-5 -31 -17 -16 -18 -16 -12 4 4 12 0 28 -10 40 -8 10 -13 14 -10 8 3 -7 0 -17
-8 -23 -11 -9 -15 -9 -19 1 -4 11 -6 10 -6 0 -1 -7 -5 -10 -11 -7 -5 3 -10 1
-10 -5 0 -7 6 -10 14 -7 8 3 25 -2 38 -12 13 -10 28 -16 33 -14 6 2 11 -6 12
-17 2 -21 -7 -20 -40 8 -9 9 -25 16 -35 17 -9 0 -23 4 -30 9 -6 4 -12 3 -12
-3 0 -6 -8 -8 -17 -4 -15 5 -14 3 2 -10 19 -16 18 -16 -20 -12 -32 3 -36 2
-22 -6 10 -6 21 -8 24 -5 4 3 12 1 19 -5 10 -8 11 -16 3 -31 -9 -16 -8 -19 2
-13 7 5 17 1 24 -9 11 -14 13 -14 18 -2 3 8 4 24 2 34 -2 15 3 19 25 19 26 0
28 -3 18 -20 -8 -16 -12 -17 -19 -6 -6 10 -8 8 -6 -8 0 -12 5 -19 9 -17 4 3 8
1 8 -5 0 -5 -7 -11 -15 -13 -10 -2 -6 -7 11 -15 21 -10 24 -9 14 2 -8 10 -5
13 15 11 17 -1 23 -6 20 -16 -2 -8 -1 -21 3 -28 7 -9 14 -8 32 8 13 11 19 20
14 20 -6 0 -15 -5 -22 -12 -6 -6 -15 -9 -19 -5 -3 4 2 13 12 21 23 17 87 14
93 -4 3 -7 0 -10 -7 -6 -6 4 -11 2 -11 -3 0 -6 -5 -11 -11 -11 -5 0 -7 5 -4
10 3 6 1 10 -5 10 -7 0 -10 -6 -7 -12 2 -7 13 -12 23 -10 10 2 33 4 51 5 18 1
39 11 48 22 l16 20 -3 -20 c-4 -27 -30 -45 -58 -40 -12 2 -30 0 -40 -5 -11 -6
-24 -4 -37 5 -18 13 -22 13 -26 0 -4 -9 -1 -12 8 -9 7 3 23 -4 34 -15 12 -12
27 -18 36 -15 11 5 13 2 9 -10 -3 -9 -1 -16 6 -16 6 0 8 5 5 10 -3 6 -2 10 4
10 5 0 12 -8 15 -18 6 -18 46 -48 46 -34 0 4 -9 13 -20 20 -12 7 -18 17 -15
22 3 5 -3 11 -14 15 -11 3 -24 12 -31 20 -9 11 -8 14 9 12 11 -1 22 -6 25 -13
5 -12 89 -14 101 -2 4 4 14 4 23 1 14 -5 15 -3 5 8 -10 10 -16 10 -25 1 -20
-20 -32 -14 -14 7 13 14 14 20 4 23 -7 3 -13 20 -13 39 0 23 -4 33 -13 31 -8
-1 -12 3 -9 10 2 7 -4 23 -14 36 -18 23 -16 52 3 52 5 0 6 -5 3 -10 -4 -6 7
-30 23 -55 22 -33 32 -41 41 -32 8 8 11 8 11 -1 0 -7 -7 -15 -15 -18 -8 -4
-15 -10 -15 -16 0 -5 5 -6 10 -3 6 3 10 2 10 -4 0 -5 -5 -12 -10 -14 -6 -3 -5
-4 2 -3 7 2 13 11 13 21 0 10 5 20 12 22 15 5 9 -33 -8 -53 -11 -13 -2 -19 24
-15 10 1 9 -11 -3 -29 -9 -14 -30 -20 -72 -21 -10 0 -18 -4 -18 -10 0 -5 -5
-9 -11 -9 -5 0 -7 5 -4 10 3 6 1 10 -5 10 -7 0 -10 -6 -7 -12 2 -7 12 -12 20
-12 13 1 15 -4 11 -21 -4 -18 0 -26 18 -35 21 -10 21 -10 6 3 -10 8 -18 20
-18 28 0 11 2 11 11 -1 8 -12 9 -10 4 7 -4 16 0 25 15 33 13 7 20 7 20 0 0 -5
-4 -10 -10 -10 -5 0 -10 -5 -10 -11 0 -8 4 -8 15 1 15 12 35 6 35 -11 0 -6 -4
-8 -9 -5 -12 8 -41 -4 -41 -16 0 -5 4 -6 10 -3 21 13 51 14 47 2 -2 -7 -11
-11 -20 -9 -8 1 -19 -3 -23 -9 -5 -8 -3 -9 5 -5 7 5 21 0 31 -9 10 -9 24 -14
30 -10 9 5 10 1 6 -13 -6 -18 -3 -20 25 -19 18 1 34 -3 36 -11 3 -8 -1 -10
-12 -5 -16 5 -16 4 1 -15 17 -20 19 -20 36 -5 10 9 21 13 26 8 4 -4 1 -10 -5
-12 -7 -3 -13 -9 -13 -15 0 -7 5 -7 13 1 14 11 27 5 27 -11 0 -5 -5 -6 -12 -2
-7 5 -8 3 -4 -5 6 -10 12 -9 24 2 32 26 41 28 39 7 -1 -11 -6 -19 -12 -17 -6
1 -12 -1 -13 -5 -1 -5 0 -7 2 -5 3 1 17 -9 32 -23 16 -14 22 -17 15 -7 -8 10
-9 17 -3 17 6 0 18 -10 26 -22 9 -12 16 -19 16 -15 0 4 9 -2 20 -13 12 -12 26
-17 36 -13 12 4 15 3 10 -6 -5 -7 -2 -10 6 -9 7 2 12 -3 10 -10 -1 -8 2 -11 8
-7 6 3 8 10 5 15 -3 5 4 8 15 7 11 -1 20 -5 20 -10 0 -5 6 -5 13 1 8 7 18 7
27 2 8 -6 13 -10 10 -11 -3 0 -13 -2 -24 -4 -10 -2 -24 -9 -30 -16 -8 -9 -8
-10 0 -6 7 4 17 0 24 -8 7 -8 16 -12 21 -9 5 3 12 -1 15 -10 3 -8 12 -17 20
-20 9 -3 12 -1 9 5 -4 5 -1 17 7 26 10 14 10 15 0 9 -16 -10 -13 25 3 36 6 5
6 8 -2 8 -6 0 -15 -5 -19 -11 -4 -8 -9 -7 -15 2 -12 20 -11 31 3 23 6 -4 17 1
24 11 12 15 11 20 -4 32 -16 14 -16 14 1 9 10 -3 16 -2 13 3 -8 12 -55 11 -63
-2 -4 -6 0 -8 9 -4 17 6 38 -10 38 -30 0 -7 -4 -13 -10 -13 -5 0 -9 6 -7 13 1
7 -8 12 -24 11 -21 -1 -26 4 -26 26 0 25 3 27 44 25 38 -2 41 -1 26 10 -9 7
-23 11 -30 8 -9 -3 -11 0 -7 10 8 22 -14 32 -73 33 -45 1 -50 -1 -37 -13 11
-11 11 -19 3 -35 -8 -15 -7 -24 7 -39 9 -10 15 -21 12 -24 -8 -8 -38 30 -43
54 -2 11 0 21 6 21 5 0 9 5 9 10 0 6 -10 4 -23 -5 -13 -8 -27 -12 -30 -8 -4 3
-15 -1 -24 -9 -33 -28 -42 -29 -40 -8 1 12 7 18 13 16 7 -3 18 2 24 9 7 8 21
13 32 12 12 -1 23 4 25 11 3 6 0 12 -7 12 -6 0 -8 -4 -5 -10 3 -5 2 -10 -4
-10 -5 0 -12 6 -15 13 -5 10 -7 10 -12 0 -3 -7 -10 -13 -15 -13 -6 0 -7 5 -4
10 3 6 1 10 -5 10 -7 0 -9 -8 -4 -22 6 -20 5 -21 -9 -9 -9 7 -14 17 -11 22 3
5 0 9 -5 9 -6 0 -11 -4 -11 -10 0 -5 -5 -10 -11 -10 -5 0 -7 5 -4 10 3 6 1 10
-5 10 -7 0 -9 -7 -6 -16 3 -9 1 -14 -5 -12 -6 2 -10 7 -9 12 1 5 -6 13 -15 19
-12 6 -22 4 -36 -9 -10 -9 -19 -12 -19 -7 0 6 6 16 14 22 18 15 56 22 56 10 0
-5 5 -9 11 -9 6 0 4 9 -5 22 -10 14 -12 27 -6 38 5 10 7 28 5 40 -9 46 49 86
77 53 9 -11 7 -18 -6 -31 -17 -16 -18 -16 -11 6 3 12 2 22 -3 22 -11 0 -10
-40 1 -57 7 -12 -32 -67 -41 -59 -3 3 3 15 12 25 13 14 15 24 8 37 -5 9 -7 26
-4 38 3 12 1 18 -3 14 -12 -11 -16 -70 -5 -63 15 10 12 -5 -5 -22 -20 -19 -14
-39 10 -35 15 3 17 1 8 -10 -9 -11 -5 -13 20 -13 18 0 38 4 45 8 7 5 12 4 12
-2 0 -6 5 -11 11 -11 8 0 8 4 -1 14 -9 12 -8 15 9 13 12 -1 20 -6 17 -12 -2
-7 17 -10 56 -10 52 1 62 -2 81 -25 13 -17 18 -19 14 -7 -5 13 -3 17 5 14 7
-2 12 -11 10 -20 -1 -8 1 -18 6 -21 10 -6 9 24 -1 41 -4 6 -2 13 5 15 7 3 5 7
-6 11 -9 4 -15 3 -12 -2 3 -5 0 -11 -7 -14 -10 -4 -14 4 -14 24 0 29 1 29 25
13 17 -11 22 -12 16 -3 -11 18 -11 40 -1 63 6 12 5 16 -1 12 -5 -3 -12 1 -16
9 -3 8 3 19 12 24 9 6 12 11 5 11 -6 0 -15 -5 -19 -11 -4 -8 -9 -7 -15 2 -12
20 -11 31 3 23 6 -4 17 1 24 11 12 15 11 20 -4 32 -16 14 -16 14 1 9 10 -3 15
-2 12 4 -7 12 -63 6 -77 -8 -7 -7 -7 -16 0 -27 6 -12 11 -14 16 -6 4 6 13 11
19 11 7 -1 2 -9 -10 -19 -27 -23 -29 -32 -5 -25 16 5 16 5 0 -9 -10 -8 -18
-18 -18 -22 0 -4 7 -2 15 5 15 12 35 6 35 -11 0 -6 -4 -8 -9 -5 -12 8 -41 -4
-41 -16 0 -5 4 -6 10 -3 20 12 51 14 48 3 -2 -6 -14 -12 -26 -13 -12 -1 -25
-5 -29 -10 -5 -4 3 -4 17 0 22 7 23 6 11 -8 -22 -28 -47 -5 -46 42 1 33 -1 38
-13 29 -11 -10 -13 -8 -10 7 5 29 -60 31 -71 2 -6 -16 -10 -17 -16 -7 -21 34
65 59 100 30 11 -9 15 -9 15 -1 0 6 -4 11 -9 11 -17 0 -2 44 20 62 14 12 31
16 53 13 30 -6 31 -6 9 10 -21 15 -29 59 -8 52 5 -2 9 -11 7 -20 -1 -8 1 -18
6 -21 10 -6 9 24 -1 41 -4 6 -2 13 5 15 7 3 5 7 -6 11 -9 4 -15 3 -12 -2 3 -5
0 -11 -7 -14 -10 -4 -14 4 -14 24 0 29 1 29 25 13 17 -11 22 -12 16 -3 -11 18
-11 40 -1 63 6 12 5 16 -1 12 -17 -10 -21 21 -6 43 9 12 11 21 5 21 -6 0 -11
-4 -11 -10 0 -5 -5 -10 -10 -10 -16 0 -8 31 13 53 18 18 18 19 0 40 -15 16
-15 19 -2 15 9 -4 16 -1 16 7 0 10 -5 11 -17 5 -10 -5 -21 -6 -25 -2 -11 11
-143 8 -138 -3 2 -6 -6 -11 -18 -12 -16 -2 -18 1 -10 11 9 10 7 15 -5 20 -9 4
-14 9 -11 13 4 3 2 14 -4 24 -6 13 -6 19 1 19 5 0 10 -4 10 -10 0 -5 5 -10 11
-10 8 0 8 4 -1 14 -9 12 -8 15 9 13 12 -1 20 -6 17 -12 -2 -6 17 -10 53 -10
55 1 86 -9 76 -25 -6 -10 24 -22 37 -14 5 3 7 12 4 19 -3 8 0 15 7 18 6 2 3 6
-7 10 -9 4 -15 3 -12 -2 3 -5 0 -11 -7 -14 -10 -4 -14 4 -14 24 0 29 1 29 25
13 17 -11 22 -12 16 -3 -11 18 -11 40 -1 63 6 12 5 16 -1 12 -17 -10 -21 20
-6 42 12 17 12 21 -1 25 -10 4 -12 1 -8 -11z m-109 -29 c-9 -10 -13 -25 -11
-33 3 -9 0 -8 -7 3 -12 19 1 47 23 47 5 0 3 -8 -5 -17z m102 7 c0 -5 -2 -10
-4 -10 -3 0 -8 5 -11 10 -3 6 -1 10 4 10 6 0 11 -4 11 -10z m-160 -41 c12 -21
6 -39 -12 -39 -7 0 -7 4 0 13 8 9 8 17 0 27 -8 12 -9 12 -4 -2 6 -21 -5 -23
-22 -6 -17 17 -15 24 8 25 11 1 25 -7 30 -18z m76 13 c6 -4 10 -17 9 -30 -1
-13 2 -25 7 -28 14 -9 9 -20 -11 -20 -13 0 -19 7 -18 18 1 10 5 18 9 18 5 0 1
11 -8 25 -16 24 -10 32 12 17z m-169 -75 c4 -4 16 -13 26 -20 10 -7 20 -21 22
-32 2 -11 4 -22 6 -25 1 -3 3 -12 3 -20 1 -10 12 -15 31 -16 42 0 61 -11 62
-37 l2 -22 -17 22 c-12 15 -25 21 -44 19 -29 -3 -51 13 -46 35 2 9 -9 14 -34
14 -30 0 -34 -2 -25 -13 9 -11 7 -13 -8 -10 -24 4 -30 -16 -10 -35 17 -17 20
-32 5 -22 -11 7 -7 -52 5 -63 4 -4 6 2 3 14 -3 12 -1 29 4 38 7 13 5 23 -8 37
-9 10 -15 22 -12 25 9 8 48 -47 41 -59 -11 -17 -12 -57 -1 -57 5 0 6 10 2 22
-6 20 -5 21 9 9 9 -7 15 -17 12 -21 -6 -10 24 -22 36 -14 13 8 11 -10 -3 -24
-16 -16 -29 -15 -25 1 1 7 -10 12 -30 12 -38 1 -65 30 -58 65 2 12 0 30 -5 40
-6 12 -5 23 4 36 12 15 11 20 -7 35 -16 12 -19 20 -11 30 6 8 9 24 8 36 -1 19
2 21 18 12 11 -6 22 -8 26 -5 3 3 1 6 -5 6 -5 0 -10 7 -10 16 0 14 2 14 13 -2
7 -11 17 -23 21 -27z m263 23 c0 -5 -5 -10 -11 -10 -5 0 -7 5 -4 10 3 6 8 10
11 10 2 0 4 -4 4 -10z m-87 -35 c10 -1 20 2 23 6 5 9 34 0 34 -10 0 -5 -25 -7
-55 -7 -30 0 -55 3 -55 7 0 12 13 18 24 12 6 -4 19 -8 29 -8z m87 -45 c0 -5
-4 -10 -10 -10 -5 0 -10 5 -10 10 0 6 5 10 10 10 6 0 10 -4 10 -10z m-394 -15
c4 -9 11 -12 18 -8 22 16 51 9 48 -12 -4 -25 -4 -34 2 -68 3 -19 1 -27 -7 -24
-15 6 -17 -130 -2 -141 14 -10 19 -46 6 -37 -16 9 -41 61 -34 68 3 4 -5 15
-18 26 -13 11 -19 20 -13 21 5 0 15 -5 22 -12 9 -9 12 -9 12 0 0 13 -4 14 -76
16 -32 1 -50 -3 -48 -9 3 -6 -5 -11 -17 -12 -16 -2 -18 1 -10 11 9 10 8 15 -4
20 -8 3 -15 13 -15 23 1 17 1 17 14 1 14 -19 32 -25 21 -8 -3 6 -1 10 4 10 6
0 11 -4 11 -10 0 -5 5 -10 11 -10 8 0 8 4 0 13 -8 11 -4 14 20 14 28 0 30 -2
14 -13 -16 -12 -14 -13 11 -10 16 1 37 -1 47 -6 10 -5 17 -5 17 0 0 5 -13 15
-30 22 -40 17 -59 39 -31 37 12 -1 21 -5 21 -9 0 -4 9 -12 20 -18 14 -7 20 -7
20 0 0 5 -7 10 -16 10 -8 0 -12 5 -9 10 4 6 11 8 16 5 5 -4 9 -2 9 2 0 5 -33
8 -72 7 -91 -2 -90 -2 -83 -14 3 -5 2 -10 -3 -10 -5 0 -9 11 -9 23 0 20 4 23
25 21 27 -3 53 21 45 42 -4 11 32 44 50 44 4 0 10 -7 13 -15z m159 -33 l-21
-16 22 -23 c15 -16 27 -21 39 -16 12 4 16 3 11 -5 -4 -6 0 -25 8 -41 13 -24
21 -28 48 -27 26 2 32 6 30 21 -3 15 -1 17 10 8 11 -10 13 -4 13 29 0 23 5 43
11 45 7 2 10 -16 8 -52 -2 -56 1 -61 24 -46 11 7 11 9 0 14 -10 3 -14 19 -12
50 2 35 -2 47 -14 53 -26 11 -52 12 -58 2 -6 -9 -24 -1 -24 11 0 10 72 8 89
-3 10 -6 12 -5 7 2 -13 21 10 13 32 -11 15 -16 18 -27 12 -37 -5 -8 -10 -13
-11 -10 -11 62 -16 61 -13 -3 1 -28 3 -52 4 -52 2 0 10 -34 15 -69 4 -21 1
-27 -9 -23 -7 3 -19 0 -25 -6 -8 -8 -15 -7 -26 4 -20 19 -29 62 -12 56 7 -2
12 -12 12 -23 0 -14 7 -19 27 -19 15 -1 24 3 21 7 -2 5 -13 6 -24 3 -11 -4
-19 -2 -19 4 0 10 22 16 43 12 5 -1 6 3 2 9 -4 6 -15 8 -26 5 -12 -4 -21 -1
-25 10 -5 12 -9 13 -20 4 -33 -28 -89 -13 -104 27 -7 17 -16 23 -32 21 -17 -1
-23 3 -23 19 0 11 -6 28 -13 36 -17 21 -6 43 21 45 22 2 22 2 2 -15z m165 -14
c0 -4 -4 -9 -8 -12 -5 -3 -8 -15 -7 -28 2 -22 -10 -38 -29 -38 -4 0 -1 11 8
25 9 14 13 25 8 25 -4 0 -8 8 -9 18 -1 11 5 18 18 18 10 0 19 -4 19 -8z m-142
-10 c7 -7 12 -16 12 -20 0 -15 -15 -8 -28 12 -13 22 -3 27 16 8z m78 -27 c4
-9 8 -21 9 -27 0 -6 6 -19 14 -28 7 -9 9 -16 3 -16 -17 0 -33 27 -26 46 5 16
4 16 -5 4 -6 -8 -8 -23 -5 -32 8 -27 -12 -22 -21 5 -4 12 -8 27 -9 32 -1 6 -5
15 -9 21 -4 7 2 12 18 12 13 0 27 -8 31 -17z m-441 -22 c0 -8 -10 -15 -22 -15
-13 -1 -23 3 -23 7 0 5 -9 4 -20 -3 -14 -9 -16 -14 -7 -20 9 -6 9 -8 0 -8 -6
0 -15 5 -19 12 -9 13 25 40 43 34 7 -3 15 -1 19 5 8 14 29 6 29 -12z m132 -3
c3 -3 3 -9 -2 -13 -4 -5 -10 -2 -12 4 -3 9 -11 8 -29 -3 -25 -17 -28 -16 -18
9 5 15 48 17 61 3z m243 -31 c0 -8 -4 -15 -10 -15 -5 0 -10 7 -10 15 0 8 5 15
10 15 6 0 10 -7 10 -15z m-115 -4 c3 -5 1 -12 -3 -15 -10 -6 -9 -36 1 -53 4
-6 1 -16 -7 -22 -10 -9 -13 0 -12 44 0 52 7 67 21 46z m-315 -36 c17 2 30 0
30 -5 0 -13 -18 -22 -24 -12 -7 12 -42 8 -60 -7 -18 -15 -22 -2 -6 17 7 9 7 9
-2 2 -21 -18 -32 -11 -13 10 15 16 19 17 31 5 8 -8 27 -12 44 -10z m-94 -1
c-3 -7 2 -18 9 -24 8 -7 13 -21 12 -32 -1 -12 4 -23 11 -25 6 -3 12 0 12 7 0
6 -4 8 -10 5 -5 -3 -10 -1 -10 4 0 6 5 11 11 11 5 0 8 3 6 8 -7 10 14 27 35
28 10 1 16 -5 15 -17 -1 -22 -8 -24 -24 -8 -8 8 -10 0 -8 -30 3 -35 0 -44 -21
-58 -14 -8 -27 -13 -30 -10 -3 3 4 10 15 17 12 6 21 15 21 21 0 6 -7 3 -16 -5
-12 -12 -20 -14 -36 -5 -14 8 -23 8 -31 0 -6 -6 -16 -11 -22 -11 -5 1 1 9 13
20 18 15 28 17 42 10 22 -12 40 -13 22 -1 -7 4 -14 19 -14 32 -1 13 -9 34 -18
46 l-16 21 -14 -21 c-12 -20 -12 -21 3 -8 22 17 22 -2 1 -23 -14 -15 -13 -16
7 -14 12 2 24 -3 26 -10 3 -7 -1 -10 -10 -6 -8 3 -18 1 -22 -5 -13 -22 -21
-10 -21 27 1 22 7 46 14 55 15 18 55 19 48 1z m428 7 c3 -5 18 -7 34 -5 22 2
28 -1 29 -17 2 -20 1 -20 -23 -5 -13 9 -24 13 -24 8 0 -4 -8 -8 -18 -9 -11 -1
-18 5 -18 18 0 20 11 25 20 10z m-95 -28 c10 -10 16 -29 14 -42 -2 -13 1 -20
7 -16 11 7 11 7 15 -45 3 -31 2 -33 -11 -15 -8 10 -14 14 -14 8 0 -7 5 -15 10
-18 6 -3 10 -12 10 -18 -1 -7 -9 -2 -19 10 -13 15 -21 19 -29 11 -28 -28 -87
-11 -102 28 -8 19 -15 24 -29 19 -14 -4 -23 0 -31 15 -11 21 -6 40 12 40 7 0
7 -4 0 -13 -8 -9 -8 -17 0 -27 8 -13 9 -13 5 1 -4 12 2 16 24 16 15 0 26 -4
23 -8 -3 -5 2 -22 10 -38 13 -24 21 -28 48 -27 26 2 32 6 30 21 -3 15 -1 17
10 8 10 -9 13 -3 14 33 0 30 -3 41 -10 34 -15 -15 -22 -12 -23 9 -1 14 3 18
15 14 14 -4 15 -3 2 5 -9 7 -19 7 -26 2 -11 -10 -24 -4 -24 11 0 14 51 1 69
-18z m268 14 c21 1 30 -3 27 -12 -3 -7 -1 -16 5 -20 17 -10 13 -21 -8 -22 -12
-1 -18 3 -16 10 3 7 0 19 -5 27 -9 13 -11 13 -20 0 -5 -8 -8 -20 -5 -27 2 -7
-4 -11 -16 -10 -22 1 -24 8 -7 25 7 7 8 15 3 20 -6 4 -9 5 -7 3 1 -2 -5 -15
-13 -28 -15 -22 -10 -29 18 -24 10 1 9 -7 -3 -29 -10 -20 -71 -23 -77 -4 -2 7
10 10 32 8 20 -1 33 2 29 7 -3 5 -17 9 -32 9 -47 0 -72 4 -72 11 0 13 25 17
43 7 14 -7 24 -5 38 8 10 9 19 21 19 27 0 5 -8 -1 -18 -13 -15 -18 -22 -21
-38 -12 -38 20 -51 -1 -50 -77 1 -58 5 -73 21 -85 20 -15 20 -15 -2 -13 -29 2
-36 19 -38 97 -2 85 19 115 64 91 14 -8 23 -5 42 15 14 15 29 22 39 18 8 -4
29 -7 47 -7z m-327 -21 c9 -3 16 -17 17 -29 2 -22 2 -22 -13 -2 -12 16 -27 20
-85 21 -53 1 -72 -3 -78 -14 -10 -18 6 -62 22 -62 6 0 2 -9 -8 -20 -22 -24
-34 -18 -14 7 12 17 12 17 -5 2 -14 -13 -16 -21 -7 -35 7 -13 10 -14 11 -5 0
8 3 12 6 9 7 -7 -18 -48 -29 -48 -4 0 -5 4 -2 10 3 5 1 18 -4 29 -8 14 -6 25
9 44 11 13 16 27 13 31 -12 12 -10 51 5 62 15 11 137 12 162 0z m-370 -16 c0
-5 -4 -10 -10 -10 -5 0 -10 5 -10 10 0 6 5 10 10 10 6 0 10 -4 10 -10z m90 0
c0 -5 -2 -10 -4 -10 -3 0 -8 5 -11 10 -3 6 -1 10 4 10 6 0 11 -4 11 -10z m610
0 c0 -5 -4 -10 -10 -10 -5 0 -10 5 -10 10 0 6 5 10 10 10 6 0 10 -4 10 -10z
m-400 -10 c0 -5 -4 -10 -10 -10 -5 0 -10 5 -10 10 0 6 5 10 10 10 6 0 10 -4
10 -10z m67 -10 c7 -8 12 -19 13 -25 0 -5 -4 -4 -9 3 -7 11 -9 11 -14 -2 -4
-9 -4 -23 -1 -31 4 -8 2 -15 -4 -15 -9 0 -23 29 -26 55 -1 6 -5 15 -9 22 -11
18 36 12 50 -7z m-188 -53 c-11 -12 -17 -27 -15 -34 6 -16 -10 -17 -19 -2 -4
6 3 21 16 35 12 13 18 24 13 24 -5 0 -10 10 -11 23 l-2 22 19 -23 c19 -23 19
-24 -1 -45z m238 43 c-1 -11 -10 -23 -20 -26 -14 -4 -16 -9 -6 -20 14 -17 -2
-19 -19 -2 -14 14 -16 32 -3 24 5 -3 16 5 25 19 20 30 25 31 23 5z m293 -5
c19 -23 19 -64 -1 -88 l-19 -22 -19 23 c-11 13 -18 31 -15 40 5 14 4 15 -5 2
-6 -8 -11 -11 -11 -7 0 13 40 67 49 67 5 0 14 -7 21 -15z m68 6 c17 -2 15 -21
-3 -21 -8 0 -15 5 -15 11 0 5 -5 7 -11 3 -6 -3 2 -14 21 -25 17 -11 28 -24 25
-30 -4 -5 -2 -15 4 -22 7 -9 5 -13 -7 -14 -9 -1 -29 -4 -44 -7 -29 -4 -33 0
-19 23 7 11 11 10 20 -5 6 -11 11 -13 11 -6 0 7 4 11 8 8 4 -2 9 5 9 16 2 20
1 20 -13 2 -15 -19 -15 -19 -10 0 4 12 -1 26 -14 38 -26 25 -25 36 3 33 12 -1
28 -3 35 -4z m-801 -15 c4 -3 3 -9 -1 -13 -4 -4 -10 -2 -14 4 -5 8 -12 7 -26
-3 -11 -8 -15 -14 -10 -14 5 0 10 -10 11 -21 2 -17 -1 -19 -10 -10 -6 6 -12
25 -13 41 -1 27 2 29 28 26 16 -2 32 -6 35 -10z m587 -3 c3 -10 9 -25 12 -33
3 -8 -3 -5 -14 7 -11 12 -22 19 -26 16 -3 -4 -6 -2 -6 4 0 26 25 30 34 6z
m-264 -28 c0 -8 -4 -15 -10 -15 -5 0 -10 7 -10 15 0 8 5 15 10 15 6 0 10 -7
10 -15z m-272 -7 c8 -8 15 -8 25 1 20 16 51 3 37 -14 -7 -8 -27 -12 -51 -10
-21 2 -37 0 -34 -5 2 -4 16 -6 30 -5 14 2 25 -1 25 -5 0 -14 -18 -21 -25 -11
-3 6 -12 8 -19 5 -7 -3 -19 2 -26 11 -8 10 -9 15 -1 15 6 0 11 7 11 15 0 18
12 19 28 3z m464 0 c4 -36 3 -44 -7 -50 -21 -16 -27 -7 -11 17 9 14 12 25 6
25 -5 0 -10 5 -10 10 0 15 20 12 22 -2z m65 1 c13 -13 5 -51 -10 -46 -6 2 -13
9 -15 17 -3 7 0 10 7 6 6 -4 11 -2 11 3 0 6 -4 11 -10 11 -5 0 -10 5 -10 10 0
13 13 13 27 -1z m63 1 c0 -5 -4 -10 -10 -10 -5 0 -10 5 -10 10 0 6 5 10 10 10
6 0 10 -4 10 -10z m130 0 c0 -5 -4 -10 -10 -10 -5 0 -10 5 -10 10 0 6 5 10 10
10 6 0 10 -4 10 -10z m-99 -33 c6 -9 8 -21 5 -25 -3 -5 15 -8 40 -7 42 2 56
-6 33 -20 -6 -4 -8 -13 -5 -20 3 -10 -3 -13 -22 -11 -39 3 -72 -14 -78 -41 -7
-24 -23 -32 -25 -10 -1 6 -3 22 -4 35 -2 24 5 28 21 12 6 -6 10 -3 11 9 2 29
-31 55 -54 42 -12 -7 -14 -10 -4 -11 8 0 12 -3 9 -6 -3 -3 -15 1 -27 8 -36 22
-30 25 59 29 21 1 37 6 35 10 -3 4 -21 6 -40 5 -32 -3 -43 3 -30 16 13 12 67
2 76 -15z m-531 3 c0 9 5 8 18 -3 10 -10 24 -17 31 -17 16 0 9 -22 -9 -28 -7
-3 -10 0 -6 6 7 12 -20 25 -51 25 -23 0 -29 8 -16 20 3 4 12 2 20 -4 10 -9 13
-8 13 1z m136 -20 c-1 -14 2 -31 7 -38 14 -18 -4 -34 -43 -38 -28 -3 -31 -2
-20 11 8 10 17 12 24 6 8 -6 17 -6 26 1 13 8 12 9 -2 5 -12 -4 -16 0 -15 14 1
10 5 19 9 19 5 0 1 11 -8 24 -15 24 -15 25 4 23 16 -1 20 -7 18 -27z m195 -7
c21 -23 25 -38 24 -84 0 -38 3 -55 11 -52 10 4 11 -12 5 -50 0 -4 -10 -3 -20
2 -25 14 -51 -13 -32 -32 10 -9 11 -8 6 4 -5 12 0 16 16 15 12 0 24 -7 27 -15
3 -9 0 -11 -7 -7 -7 4 -18 2 -26 -4 -10 -8 -20 -9 -27 -3 -7 5 -23 8 -35 7
-19 -1 -21 2 -12 18 5 10 7 23 4 28 -3 5 4 8 15 7 21 -1 26 -12 10 -22 -5 -3
-10 -11 -10 -17 0 -5 14 4 30 22 30 33 38 46 20 35 -5 -3 -10 -1 -10 4 0 6 5
11 10 11 6 0 10 5 10 11 0 8 -6 7 -17 -2 -15 -12 -16 -12 -10 5 5 13 1 25 -13
38 -11 10 -20 22 -20 27 0 15 43 6 47 -9 4 -12 3 -12 -5 -1 -5 7 -12 9 -14 5
-3 -5 3 -16 12 -25 17 -16 18 -14 16 20 -1 33 -25 92 -26 64 0 -6 5 -15 10
-18 6 -3 10 -12 10 -18 -1 -7 -9 -1 -20 12 -11 12 -17 28 -13 35 3 6 1 6 -8
-1 -10 -10 -10 -16 -1 -25 17 -17 15 -24 -7 -25 -12 -1 -18 3 -16 10 3 7 0 19
-5 27 -9 13 -11 13 -20 0 -5 -8 -8 -20 -5 -27 2 -7 -4 -11 -16 -10 -21 1 -25
12 -8 22 6 4 8 13 5 21 -4 10 2 13 24 10 15 -2 34 1 42 5 19 13 22 12 49 -18z
m52 -36 c-10 -17 -11 -47 -1 -53 4 -3 6 -10 3 -15 -14 -21 -21 -6 -21 46 -1
44 2 53 12 44 8 -6 11 -16 7 -22z m-123 13 c0 -5 -4 -10 -10 -10 -5 0 -10 5
-10 10 0 6 5 10 10 10 6 0 10 -4 10 -10z m228 -2 c17 -17 15 -33 -3 -18 -15
12 -20 4 -16 -22 0 -4 -13 -6 -29 -4 -17 2 -33 0 -36 -5 -9 -15 -20 -10 -20
10 0 13 7 19 18 18 10 -1 18 -5 18 -9 0 -5 11 -1 25 8 14 9 22 20 19 25 -8 13
10 11 24 -3z m212 -34 c0 -8 -4 -14 -10 -14 -5 0 -9 6 -7 13 1 7 -7 11 -20 10
-27 -3 -31 14 -5 19 21 5 42 -9 42 -28z m-426 -6 c11 -16 12 -26 5 -40 -6 -11
-8 -22 -5 -25 7 -7 -13 -33 -25 -33 -4 0 -17 14 -29 30 l-21 30 21 30 c25 36
34 37 54 8z m-254 -8 c0 -5 -2 -10 -4 -10 -3 0 -8 5 -11 10 -3 6 -1 10 4 10 6
0 11 -4 11 -10z m290 -30 c0 -5 -5 -10 -10 -10 -6 0 -3 -11 6 -24 15 -24 15
-25 -4 -23 -20 1 -21 7 -13 60 2 11 21 9 21 -3z m246 -7 c-3 -10 -2 -24 3 -32
10 -16 4 -41 -11 -41 -5 0 -6 4 -3 10 3 5 2 17 -3 26 -11 19 -4 54 10 54 5 0
7 -8 4 -17z m31 -1 c-10 -10 -14 -22 -10 -25 13 -14 9 -52 -7 -64 -10 -7 -28
-10 -41 -8 -12 3 -30 -1 -38 -9 -33 -28 -76 -2 -50 30 7 8 12 24 13 36 1 30
61 35 77 7 11 -21 5 -39 -13 -39 -7 0 -7 4 0 13 8 9 8 17 0 27 -8 12 -9 11 -4
-4 5 -13 2 -17 -9 -12 -19 7 -47 -3 -39 -15 3 -5 -2 -12 -11 -15 -14 -6 -14
-8 2 -19 15 -11 19 -10 30 5 8 12 22 16 42 14 36 -4 55 20 39 49 -10 19 4 47
25 47 5 0 3 -8 -6 -18z m19 -20 c6 -4 10 -17 9 -30 -1 -13 2 -25 7 -28 14 -9
9 -20 -11 -20 -13 0 -19 7 -18 18 1 10 5 18 9 18 5 0 1 11 -8 25 -16 24 -10
32 12 17z m-362 -38 c24 -9 19 -22 -6 -19 -30 3 -30 3 -23 15 7 12 8 12 29 4z
m256 -2 c0 -10 -22 -32 -32 -32 -5 0 -3 9 4 20 13 20 28 27 28 12z m200 -12
c0 -5 -5 -10 -11 -10 -5 0 -7 5 -4 10 3 6 8 10 11 10 2 0 4 -4 4 -10z m-87
-35 c10 -1 20 2 23 6 5 9 34 0 34 -10 0 -5 -25 -7 -55 -7 -30 0 -55 3 -55 7 0
12 13 18 24 12 6 -4 19 -8 29 -8z m7 -57 c0 -5 -4 -6 -10 -3 -5 3 -10 3 -11
-2 0 -4 -2 -17 -4 -29 -3 -12 6 -36 20 -54 14 -19 25 -29 25 -24 0 5 10 10 21
11 17 2 19 -1 10 -10 -16 -16 -74 -18 -67 -2 2 7 -7 24 -20 38 -25 27 -32 43
-14 32 6 -4 8 6 6 23 -3 25 0 30 20 30 13 0 24 -5 24 -10z m36 -16 c1 -12 -3
-22 -8 -22 -6 0 -8 6 -5 14 3 7 0 19 -6 26 -9 10 -9 11 3 8 8 -3 16 -14 16
-26z m-30 -16 c-11 -18 -12 -26 -3 -29 6 -2 9 -8 5 -12 -5 -5 -11 -5 -15 -2
-11 12 -11 52 1 59 22 15 28 7 12 -16z m-102 -10 c-7 -19 44 -66 64 -59 15 6
15 5 3 -10 -13 -16 -15 -16 -32 -1 -11 10 -19 12 -19 6 0 -6 -7 -9 -16 -5 -14
5 -15 8 -3 17 12 9 10 15 -8 32 -12 12 -24 20 -27 17 -3 -3 5 -14 17 -24 27
-22 10 -25 -21 -3 -17 12 -19 18 -9 28 15 16 57 18 51 2z m172 -138 c0 -10 -4
-18 -8 -18 -4 0 -8 5 -8 10 0 6 -7 10 -16 8 -10 -2 -19 2 -21 8 -2 6 9 10 25
10 20 0 28 -5 28 -18z"/>
<path d="M4536 3839 c3 -5 12 -9 20 -9 19 0 18 -17 -3 -28 -12 -7 -6 -10 24
-8 23 0 45 5 49 9 5 4 1 5 -9 1 -13 -4 -16 -2 -11 9 3 8 0 18 -6 22 -6 3 -10
3 -9 -2 3 -18 -1 -33 -10 -33 -4 0 -7 10 -6 23 2 17 -3 22 -21 23 -13 1 -21
-2 -18 -7z"/>
<path d="M4525 3810 c-3 -6 1 -7 9 -4 18 7 21 14 7 14 -6 0 -13 -4 -16 -10z"/>
<path d="M4436 3775 c4 -11 2 -14 -9 -9 -8 3 -18 0 -22 -7 -5 -7 -3 -10 6 -7
8 3 22 1 33 -4 12 -6 22 -6 28 0 6 6 16 8 23 6 7 -3 15 -1 18 3 3 5 -3 9 -13
10 -11 1 -22 -2 -25 -8 -9 -14 -25 -11 -25 5 0 8 -4 18 -10 21 -6 3 -7 -1 -4
-10z"/>
<path d="M4400 3725 c-9 -10 -9 -15 -1 -15 6 0 11 5 11 10 0 6 5 10 11 10 5 0
8 -4 4 -9 -7 -12 36 -11 52 1 7 6 14 2 18 -12 3 -11 11 -17 17 -14 6 4 5 10
-3 15 -8 5 -9 9 -4 9 6 0 3 4 -4 9 -9 6 -22 6 -31 1 -9 -5 -22 -5 -31 1 -19
12 -25 11 -39 -6z"/>
<path d="M4686 3695 c-9 -26 -7 -32 5 -12 6 10 9 21 6 23 -2 3 -7 -2 -11 -11z"/>
<path d="M4470 3499 c0 -5 5 -7 10 -4 6 3 10 8 10 11 0 2 -4 4 -10 4 -5 0 -10
-5 -10 -11z"/>
<path d="M4366 3535 c-9 -26 -7 -32 5 -12 6 10 9 21 6 23 -2 3 -7 -2 -11 -11z"/>
<path d="M4707 3513 c-2 -4 -3 -21 -3 -38 1 -45 31 -41 31 4 0 32 -17 53 -28
34z m23 -13 c0 -5 -4 -10 -10 -10 -5 0 -10 5 -10 10 0 6 5 10 10 10 6 0 10 -4
10 -10z m0 -40 c0 -5 -4 -10 -10 -10 -5 0 -10 5 -10 10 0 6 5 10 10 10 6 0 10
-4 10 -10z"/>
<path d="M4665 3397 c8 -13 12 -28 8 -33 -4 -5 -2 -4 5 2 11 10 11 15 0 33 -7
11 -16 21 -21 21 -4 0 -1 -10 8 -23z"/>
<path d="M4700 3405 c0 -5 5 -17 10 -25 9 -13 11 -13 20 0 5 8 10 20 10 25 0
6 -5 3 -10 -5 -9 -13 -11 -13 -20 0 -5 8 -10 11 -10 5z"/>
<path d="M4500 3260 c0 -5 5 -10 11 -10 5 0 7 5 4 10 -3 6 -8 10 -11 10 -2 0
-4 -4 -4 -10z"/>
<path d="M4387 3353 c-9 -17 -1 -67 11 -71 6 -2 12 1 12 8 0 6 -4 8 -10 5 -15
-9 -12 5 5 22 9 8 14 20 12 26 -4 14 -24 20 -30 10z m23 -13 c0 -5 -4 -10 -10
-10 -5 0 -10 5 -10 10 0 6 5 10 10 10 6 0 10 -4 10 -10z"/>
<path d="M4660 3800 c0 -5 5 -10 10 -10 6 0 10 5 10 10 0 6 -4 10 -10 10 -5 0
-10 -4 -10 -10z"/>
<path d="M4690 3800 c0 -5 5 -10 10 -10 6 0 10 5 10 10 0 6 -4 10 -10 10 -5 0
-10 -4 -10 -10z"/>
<path d="M4720 3800 c0 -5 5 -10 10 -10 6 0 10 5 10 10 0 6 -4 10 -10 10 -5 0
-10 -4 -10 -10z"/>
<path d="M4750 3800 c0 -5 5 -10 10 -10 6 0 10 5 10 10 0 6 -4 10 -10 10 -5 0
-10 -4 -10 -10z"/>
<path d="M4780 3800 c0 -5 5 -10 10 -10 6 0 10 5 10 10 0 6 -4 10 -10 10 -5 0
-10 -4 -10 -10z"/>
<path d="M3900 3479 c0 -5 5 -7 10 -4 6 3 10 8 10 11 0 2 -4 4 -10 4 -5 0 -10
-5 -10 -11z"/>
<path d="M3500 3152 c-2 -897 1 -2086 4 -2089 3 -3 105 53 228 125 123 71 331
191 463 267 132 76 242 142 245 146 7 11 7 1096 0 1103 -6 5 -472 276 -476
276 -1 0 -38 21 -81 46 -43 26 -91 55 -108 64 -16 10 -85 49 -152 88 l-123 71
0 -97z"/>
<path d="M4346 3215 c10 -8 23 -15 28 -15 6 0 1 7 -10 15 -10 8 -23 15 -28 15
-6 0 -1 -7 10 -15z"/>
</g>
</svg>
