<svg xmlns="http://www.w3.org/2000/svg" viewBox="40 60 390 375">
      <defs>
        <clipPath id="paperclip">
          <path
            fill="none"
            d="M304.28 153.73L297 158 301 159 299.66 181.34 280.66 192.32 280.66 147.41 306.58 132.44 306.58 152.4 304.28 153.73z"
          ></path>
        </clipPath>
      </defs>
      <g>
        <path
          fill="#242424"
          d="M66.91 293.43a5.08 5.08 0 01-2.3-4V145.08a5.1 5.1 0 012.3-4l51.57-29.77a4.33 4.33 0 016.62 3.83v9.64c0 1.47 1 2.07 2.31 1.33l64.53-37.25a4.33 4.33 0 016.62 3.82v221.88L151 342z"
        ></path>
        <path
          fill="#666"
          d="M196.4 88.79a4.91 4.91 0 00-4.46.08l-64.53 37.25c-1.28.74-2.31.14-2.31-1.33v-9.64a4.33 4.33 0 00-6.62-3.83l-51.57 29.77a4.83 4.83 0 00-1.63 1.72l29.58 17.08L198.56 100v-7.31a4.93 4.93 0 00-2.16-3.9z"
        ></path>
        <path
          fill="#606060"
          d="M196.26 91.36l-68.85 39.75c-1.28.74-2.31.14-2.31-1.33v-14.63c0-1.47-1-2.07-2.3-1.33l-51.57 29.77a5.09 5.09 0 00-2.3 4V287a5.07 5.07 0 002.31 4l84.11 48.56 43.21-24.94V92.69c0-1.47-1.03-2.06-2.3-1.33z"
        ></path>
        <path
          fill="#242424"
          d="M69.61 289.22a4.66 4.66 0 001.63 1.72l84.11 48.56 43.21-24.94v-99.79z"
        ></path>
        <path
          fill="#f5f5f5aa"
          d="M80.05 321l-.63-.36a4.08 4.08 0 01-1.85-3.19V182a4.05 4.05 0 011.85-3.19l138.9-80.2a4.07 4.07 0 013.69 0l.63.37a4.05 4.05 0 011.85 3.19v135.42a4.08 4.08 0 01-1.85 3.19L83.74 321a4.07 4.07 0 01-3.69 0z"
        ></path>
        <path
          fill="#e0e0e0"
          d="M86.21 184.83l-8.1-4.68a3.82 3.82 0 00-.54 1.82v135.45a4.08 4.08 0 001.85 3.19l.63.36a4.07 4.07 0 003.69 0l2.47-1.43z"
        ></path>
        <path
          fill="#ebebebaa"
          d="M81.9 319.91V184.46a4.07 4.07 0 011.84-3.19l138.9-80.2c1-.58 1.85-.11 1.85 1.07v135.45a4.08 4.08 0 01-1.85 3.19L83.74 321c-1.02.56-1.84.09-1.84-1.09z"
        ></path>
        <path
          fill="#ffffffaa"
          d="M92.84 186l120.7-69.68c1.27-.74 2.3-.14 2.3 1.33v104.44a5.08 5.08 0 01-2.3 4l-120.7 69.67c-1.27.74-2.3.14-2.3-1.33V190a5.1 5.1 0 012.3-4z"
        ></path>
        <path
          fill="#A4CC14"
          d="M112.79 180.79c7.52-4.34 13.61-.82 13.61 7.86s-6.09 19.23-13.61 23.57-13.61.83-13.61-7.85 6.09-19.24 13.61-23.58zM125.4 212.27a6.19 6.19 0 019.92-1.36L151 227.24l29.8-73.11a6.19 6.19 0 0111.09-.76l23.93 41.44v27.28a5.08 5.08 0 01-2.3 4L92.84 295.76c-1.27.74-2.3.14-2.3-1.33v-17.3z"
        ></path>
        <path
          fill="#f5f5f5aa"
          d="M106 336l-.64-.37a4.07 4.07 0 01-1.84-3.19v-135.5a4.07 4.07 0 011.84-3.19l138.91-80.19a4 4 0 013.68 0l.64.36a4.07 4.07 0 011.84 3.19v135.45a4 4 0 01-1.84 3.19L109.66 336a4 4 0 01-3.66 0z"
        ></path>
        <path
          fill="#e0e0e0"
          d="M112.14 199.81l-8.1-4.68a3.81 3.81 0 00-.54 1.81v135.45a4.07 4.07 0 001.84 3.19l.64.37a4 4 0 003.68 0l2.48-1.43z"
        ></path>
        <path
          fill="#ebebebaa"
          d="M107.82 334.89V199.44a4.08 4.08 0 011.84-3.19l138.91-80.2c1-.59 1.84-.11 1.84 1.06v135.45a4 4 0 01-1.84 3.19L109.66 336c-1.01.54-1.84.06-1.84-1.11z"
        ></path>
        <path
          fill="#ffffffaa"
          d="M118.77 201l120.7-69.69c1.27-.73 2.3-.13 2.3 1.33v104.42a5.09 5.09 0 01-2.3 4l-120.7 69.69c-1.28.73-2.31.14-2.31-1.33V205a5.08 5.08 0 012.31-4z"
        ></path>
        <path
          fill="#A4CC14"
          d="M138.72 195.77c7.51-4.34 13.61-.82 13.61 7.86s-6.1 19.23-13.61 23.57-13.61.82-13.61-7.86 6.09-19.23 13.61-23.57zM151.33 227.25a6.18 6.18 0 019.91-1.36L177 242.22l29.79-73.11a6.19 6.19 0 0111.1-.76l23.92 41.44v27.27a5.09 5.09 0 01-2.3 4l-120.7 69.69c-1.28.73-2.31.14-2.31-1.33v-17.3z"
        ></path>
        <path
          fill="#f5f5f5aa"
          d="M131.9 350.91l-.63-.36a4.07 4.07 0 01-1.84-3.19V211.91a4.05 4.05 0 011.85-3.19l138.9-80.2a4.07 4.07 0 013.69 0l.63.37a4.05 4.05 0 011.85 3.19v135.45a4.08 4.08 0 01-1.85 3.19l-138.9 80.19a4.07 4.07 0 01-3.7 0z"
        ></path>
        <path
          fill="#e0e0e0"
          d="M138.07 214.77l-8.07-4.68a3.82 3.82 0 00-.54 1.82v135.45a4.07 4.07 0 001.84 3.19l.63.36a4.07 4.07 0 003.69 0l2.48-1.43z"
        ></path>
        <path
          fill="#ebebebaa"
          d="M133.75 349.85V214.4a4.07 4.07 0 011.84-3.19L274.49 131c1-.58 1.85-.11 1.85 1.07v135.46a4.08 4.08 0 01-1.85 3.19l-138.9 80.19c-1.02.59-1.84.09-1.84-1.06z"
        ></path>
        <path
          fill="#ffffffaa"
          d="M144.69 215.93l120.7-69.68c1.27-.74 2.3-.14 2.3 1.33V252a5.09 5.09 0 01-2.3 4l-120.7 69.7c-1.27.74-2.3.14-2.3-1.33V219.92a5.1 5.1 0 012.3-3.99z"
        ></path>
        <path
          fill="#A4CC14"
          d="M164.64 210.73c7.52-4.34 13.61-.82 13.61 7.86s-6.09 19.23-13.61 23.57S151 243 151 234.31s6.12-19.24 13.64-23.58zM177.25 242.21a6.19 6.19 0 019.92-1.36l15.71 16.33 29.8-73.11a6.19 6.19 0 0111.09-.76l23.93 41.44V252a5.12 5.12 0 01-2.31 4l-120.7 69.7c-1.27.74-2.3.14-2.3-1.33v-17.3z"
        ></path>
        <path
          fill="#242424"
          d="M155.35 339.5L168.31 332.02 168.31 346.99 155.35 339.5z"
        ></path>
        <path
          fill="#242424"
          d="M168.31 234.89v109.44c0 1.47-1 2.06-2.3 1.33l-10.66-6.16L151 342l19.3 11.14a5.06 5.06 0 004.61 0L308.6 276a5.1 5.1 0 002.31-4V157.56a4.34 4.34 0 00-6.63-3.83L170.62 230.9a5.08 5.08 0 00-2.31 3.99z"
        ></path>
        <path
          fill="#666"
          d="M177 237.22l134-77.33v-2.33a4.34 4.34 0 00-6.63-3.83L170.62 230.9a4.66 4.66 0 00-1.63 1.72z"
        ></path>
        <path
          fill="#606060"
          d="M308.6 156.23L174.94 233.4a5.1 5.1 0 00-2.31 4v114.41c0 1.47 1 2.07 2.31 1.33L308.6 276a5.1 5.1 0 002.31-4V157.56c0-1.47-1.04-2.07-2.31-1.33z"
        ></path>
        <path
          fill="#fafafa"
          d="M208.22 304.27a1.42 1.42 0 01-.73-.19 1.77 1.77 0 01-.79-1.63v-55.62a4.57 4.57 0 012.09-3.62l65.46-37.79a1.61 1.61 0 012.59 1.5v55.62a4.57 4.57 0 01-2.09 3.62L209.29 304a2.16 2.16 0 01-1.07.27zm67.1-98.17a1.1 1.1 0 00-.57.19l-65.46 37.78a3.6 3.6 0 00-1.59 2.76v55.62a.86.86 0 00.29.76.83.83 0 00.8-.13l65.46-37.79a3.57 3.57 0 001.59-2.75v-55.62a.85.85 0 00-.29-.76.44.44 0 00-.23-.06zM209 243.64z"
        ></path>
        <path
          fill="#fafafa"
          d="M218.77 256.37a3.24 3.24 0 01-1.63-.42 4.19 4.19 0 01-1.8-3.86 12.27 12.27 0 015.54-9.59 3.71 3.71 0 016 3.49 12.24 12.24 0 01-5.54 9.59 5.35 5.35 0 01-2.57.79zm4.72-13.66a4.32 4.32 0 00-2.11.66 11.13 11.13 0 00-5 8.72 2.74 2.74 0 004.54 2.62 11.14 11.14 0 005-8.72 3.24 3.24 0 00-1.3-3 2.14 2.14 0 00-1.13-.28zM207.2 300.09a.53.53 0 01-.2-.09.49.49 0 01-.21-.67l19.38-38.05a4.12 4.12 0 016.54-1.1l19.16 18.44a.49.49 0 010 .7.5.5 0 01-.71 0L232 260.93a3.13 3.13 0 00-4.95.83l-19.38 38.06a.51.51 0 01-.47.27z"
        ></path>
        <path
          fill="#fafafa"
          d="M241.77 270.15a.48.48 0 01-.2 0 .5.5 0 01-.26-.65l15-34.68a4 4 0 016.75-1l13.64 16.49a.49.49 0 01-.06.7.51.51 0 01-.64-.01l-13.64-16.49a3 3 0 00-5.07.72l-15 34.67a.5.5 0 01-.52.25z"
        ></path>
        <g clipPath="url(#paperclip)">
          <path
            fill="#A4CC14"
            d="M290.86 181.6c-3.09 0-5.16-1.85-5.16-4.6l.27-17.34c0-4.73 0-11.91 5.28-15a7.2 7.2 0 0111.06 6.11c0 1.39-.05 3.09-.13 5.06a1.48 1.48 0 01-1.56 1.44 1.5 1.5 0 01-1.43-1.57c.07-1.89.12-3.6.12-4.93a4.2 4.2 0 00-6.56-3.51c-3.49 2-3.78 7-3.78 12.38L288.7 177c0 1.3 1.17 1.58 2.16 1.58a6.29 6.29 0 006.14-6.23l-.11-6.85a1.5 1.5 0 113 0l.11 6.86a9.21 9.21 0 01-9.14 9.24z"
          ></path>
        </g>
      </g>
      <g>
        <path
          fill="#666"
          d="M313.38 288.18l-104.33 60.24a4.08 4.08 0 00-1.85 3.19v.73a4.09 4.09 0 001.85 3.2l87.05 50.26a4.07 4.07 0 003.69 0l104.33-60.24a4.08 4.08 0 001.85-3.19v-.74a4.08 4.08 0 00-1.85-3.19l-87.05-50.26a4.07 4.07 0 00-3.69 0z"
        ></path>
        <path
          fill="#242424"
          d="M207.2 351.61v.73a4.09 4.09 0 001.85 3.2l87.05 50.26a3.82 3.82 0 001.84.44v-9.36L211.52 347l-2.47 1.43a4.08 4.08 0 00-1.85 3.18z"
        ></path>
        <path
          fill="#606060"
          d="M209.05 348.42l104.33-60.24a4.07 4.07 0 013.69 0l87.05 50.26a1.12 1.12 0 010 2.13l-104.33 60.24a4.07 4.07 0 01-3.69 0l-87.05-50.26a1.12 1.12 0 010-2.13z"
        ></path>
        <path
          fill="#ffffffaa"
          d="M222 350.55l67.61 39a4 4 0 003.68 0l91.38-52.75a1.12 1.12 0 000-2.13l-67.61-39a4.13 4.13 0 00-3.69 0L222 348.42a1.12 1.12 0 000 2.13z"
        ></path>
        <path
          fill="#A4CC14"
          d="M242.85 342.3c4.77-2.75 12.51-2.75 17.28 0s4.78 7.22 0 10-12.51 2.75-17.28 0-4.77-7.24 0-10zM384.68 334.7l-19.76-11.41-60-5.59a4.28 4.28 0 00-4.37 5.85l10.36 25.93-33-1.88a4.27 4.27 0 00-4.46 5l5.08 30.59 11.12 6.42a4 4 0 003.68 0l91.38-52.75a1.12 1.12 0 00-.03-2.16z"
        ></path>
      </g>
    </svg>