<svg viewBox="0 0 438 55" fill="currentColor" xmlns="http://www.w3.org/2000/svg">
  <g>
    <path d="M 16.93 8.249 C 19.918 8.249 22.384 8.573 24.328 9.221 C 26.272 9.869 27.721 10.886 28.675 12.272 C 29.629 13.658 30.106 15.449 30.106 17.645 C 30.106 19.121 29.836 20.471 29.296 21.695 C 28.756 22.919 27.973 23.936 26.947 24.746 C 25.921 25.556 24.634 26.105 23.086 26.393 L 23.086 26.555 C 24.85 26.843 26.326 27.374 27.514 28.148 C 28.702 28.922 29.602 29.939 30.214 31.199 C 30.826 32.459 31.132 34.007 31.132 35.843 C 31.132 38.327 30.601 40.379 29.539 41.999 C 28.477 43.619 26.992 44.825 25.084 45.617 C 23.176 46.409 20.944 46.805 18.388 46.805 L 6.832 46.805 L 6.832 8.249 L 16.93 8.249 Z M 17.632 25.259 C 20.908 25.259 23.257 24.647 24.679 23.423 C 26.101 22.199 26.812 20.381 26.812 17.969 C 26.812 15.485 26.029 13.703 24.463 12.623 C 22.897 11.543 20.404 11.003 16.984 11.003 L 9.964 11.003 L 9.964 25.259 L 17.632 25.259 Z M 9.964 27.959 L 9.964 44.051 L 18.118 44.051 C 21.394 44.051 23.833 43.34 25.435 41.918 C 27.037 40.496 27.838 38.417 27.838 35.681 C 27.838 33.881 27.469 32.414 26.731 31.28 C 25.993 30.146 24.877 29.309 23.383 28.769 C 21.889 28.229 19.99 27.959 17.686 27.959 L 9.964 27.959 Z"></path>
    <path d="M 56.456 32.09 L 51.218 16.781 C 51.11 16.421 50.957 15.935 50.759 15.323 C 50.561 14.711 50.354 14.063 50.138 13.379 C 49.922 12.695 49.724 12.083 49.544 11.543 C 49.292 12.479 49.013 13.424 48.707 14.378 C 48.401 15.332 48.122 16.151 47.87 16.835 L 42.497 32.09 L 37.178 46.805 L 33.938 46.805 L 48.14 8.087 L 51.11 8.087 L 64.934 46.805 L 61.694 46.805 L 56.456 32.09 Z"></path>
    <path d="M 76.483 46.805 L 73.351 46.805 L 73.351 11.057 L 61.741 11.057 L 61.741 8.249 L 88.093 8.249 L 88.093 11.057 L 76.483 11.057 L 76.483 46.805 Z"></path>
    <path d="M 104.511 46.805 L 101.379 46.805 L 101.379 11.057 L 89.769 11.057 L 89.769 8.249 L 116.121 8.249 L 116.121 11.057 L 104.511 11.057 L 104.511 46.805 Z"></path>
    <path d="M 121.525 46.805 L 121.525 8.249 L 124.657 8.249 L 124.657 43.943 L 141.559 43.943 L 141.559 46.805 L 121.525 46.805 Z"></path>
    <path d="M 167.802 46.805 L 147.822 46.805 L 147.822 8.249 L 167.802 8.249 L 167.802 11.057 L 150.954 11.057 L 150.954 25.151 L 166.83 25.151 L 166.83 27.959 L 150.954 27.959 L 150.954 43.997 L 167.802 43.997 L 167.802 46.805 Z"></path>
    <path d="M 196.095 36.761 C 196.095 39.065 195.555 41 194.475 42.566 C 193.395 44.132 191.91 45.32 190.02 46.13 C 188.13 46.94 185.961 47.345 183.513 47.345 C 182.073 47.345 180.75 47.264 179.544 47.102 C 178.338 46.94 177.249 46.733 176.277 46.481 C 175.305 46.229 174.405 45.941 173.577 45.617 L 173.577 42.539 C 174.909 43.079 176.43 43.547 178.14 43.943 C 179.85 44.339 181.695 44.537 183.675 44.537 C 185.511 44.537 187.122 44.258 188.508 43.7 C 189.894 43.142 190.974 42.296 191.748 41.162 C 192.522 40.028 192.909 38.633 192.909 36.977 C 192.909 35.429 192.576 34.169 191.91 33.197 C 191.244 32.225 190.236 31.37 188.886 30.632 C 187.536 29.894 185.799 29.147 183.675 28.391 C 181.731 27.635 180.03 26.816 178.572 25.934 C 177.114 25.052 175.989 23.936 175.197 22.586 C 174.405 21.236 174.009 19.535 174.009 17.483 C 174.009 15.359 174.513 13.577 175.521 12.137 C 176.529 10.697 177.906 9.599 179.652 8.843 C 181.398 8.087 183.387 7.709 185.619 7.709 C 187.419 7.709 189.111 7.88 190.695 8.222 C 192.279 8.564 193.791 9.077 195.231 9.761 L 194.151 12.461 C 192.747 11.813 191.316 11.327 189.858 11.003 C 188.4 10.679 186.951 10.517 185.511 10.517 C 183.891 10.517 182.451 10.778 181.191 11.3 C 179.931 11.822 178.95 12.596 178.248 13.622 C 177.546 14.648 177.195 15.917 177.195 17.429 C 177.195 19.049 177.537 20.363 178.221 21.371 C 178.905 22.379 179.886 23.225 181.164 23.909 C 182.442 24.593 183.999 25.277 185.835 25.961 C 187.959 26.717 189.786 27.536 191.316 28.418 C 192.846 29.3 194.025 30.398 194.853 31.712 C 195.681 33.026 196.095 34.709 196.095 36.761 Z"></path>
    <path d="M 213.701 46.805 L 210.569 46.805 L 210.569 11.057 L 198.959 11.057 L 198.959 8.249 L 225.311 8.249 L 225.311 11.057 L 213.701 11.057 L 213.701 46.805 Z"></path>
    <path d="M 244.591 32.09 L 239.353 16.781 C 239.245 16.421 239.092 15.935 238.894 15.323 C 238.696 14.711 238.489 14.063 238.273 13.379 C 238.057 12.695 237.859 12.083 237.679 11.543 C 237.427 12.479 237.148 13.424 236.842 14.378 C 236.536 15.332 236.257 16.151 236.005 16.835 L 230.632 32.09 L 225.313 46.805 L 222.073 46.805 L 236.275 8.087 L 239.245 8.087 L 253.069 46.805 L 249.829 46.805 L 244.591 32.09 Z"></path>
    <path d="M 264.618 46.805 L 261.486 46.805 L 261.486 11.057 L 249.876 11.057 L 249.876 8.249 L 276.228 8.249 L 276.228 11.057 L 264.618 11.057 L 264.618 46.805 Z"></path>
    <path d="M 285.137 46.831 L 281.937 46.831 L 281.937 8.231 L 285.137 8.231 L 285.137 46.831 Z"></path>
    <path d="M 323.054 27.473 C 323.054 30.425 322.736 33.107 322.1 35.519 C 321.464 37.931 320.51 40.028 319.237 41.81 C 317.965 43.592 316.375 44.96 314.466 45.914 C 312.558 46.868 310.348 47.345 307.837 47.345 C 305.293 47.345 303.066 46.859 301.158 45.887 C 299.249 44.915 297.667 43.547 296.412 41.783 C 295.156 40.019 294.21 37.922 293.574 35.492 C 292.938 33.062 292.62 30.371 292.62 27.419 C 292.62 23.495 293.198 20.048 294.353 17.078 C 295.508 14.108 297.232 11.795 299.526 10.139 C 301.819 8.483 304.64 7.655 307.988 7.655 C 311.236 7.655 313.981 8.456 316.224 10.058 C 318.467 11.66 320.167 13.937 321.322 16.889 C 322.477 19.841 323.054 23.369 323.054 27.473 Z M 295.684 27.419 C 295.684 30.839 296.119 33.836 296.989 36.41 C 297.86 38.984 299.199 40.982 301.007 42.404 C 302.815 43.826 305.108 44.537 307.887 44.537 C 310.666 44.537 312.951 43.835 314.743 42.431 C 316.534 41.027 317.856 39.038 318.71 36.464 C 319.564 33.89 319.991 30.893 319.991 27.473 C 319.991 22.109 318.995 17.933 317.003 14.945 C 315.011 11.957 312.006 10.463 307.988 10.463 C 305.209 10.463 302.907 11.165 301.082 12.569 C 299.258 13.973 297.902 15.953 297.014 18.509 C 296.127 21.065 295.684 24.035 295.684 27.419 Z"></path>
    <path d="M 357.653 46.805 L 354.251 46.805 L 333.461 13.109 L 333.299 13.109 C 333.335 13.829 333.371 14.558 333.407 15.296 C 333.443 16.034 333.47 16.799 333.488 17.591 C 333.506 18.383 333.524 19.184 333.542 19.994 C 333.56 20.804 333.569 21.623 333.569 22.451 L 333.569 46.805 L 330.599 46.805 L 330.599 8.249 L 334.001 8.249 L 354.737 41.837 L 354.899 41.837 C 354.899 41.261 354.881 40.613 354.845 39.893 C 354.809 39.173 354.782 38.399 354.764 37.571 C 354.746 36.743 354.728 35.906 354.71 35.06 C 354.692 34.214 354.683 33.431 354.683 32.711 L 354.683 8.249 L 357.653 8.249 L 357.653 46.805 Z"></path>
    <path d="M 397.362 27.149 C 397.362 31.469 396.597 35.087 395.067 38.003 C 393.537 40.919 391.332 43.115 388.452 44.591 C 385.572 46.067 382.116 46.805 378.084 46.805 L 367.5 46.805 L 367.5 8.249 L 379.11 8.249 C 382.89 8.249 386.148 8.969 388.884 10.409 C 391.62 11.849 393.717 13.964 395.175 16.754 C 396.633 19.544 397.362 23.009 397.362 27.149 Z M 389.802 27.365 C 389.802 24.305 389.397 21.785 388.587 19.805 C 387.777 17.825 386.571 16.358 384.969 15.404 C 383.367 14.45 381.396 13.973 379.056 13.973 L 374.736 13.973 L 374.736 41.027 L 378.246 41.027 C 382.17 41.027 385.077 39.884 386.967 37.598 C 388.857 35.312 389.802 31.901 389.802 27.365 Z"></path>
    <path d="M 415.749 8.2 C 418.989 8.2 421.662 8.515 423.768 9.145 C 425.874 9.775 427.449 10.792 428.493 12.196 C 429.537 13.6 430.059 15.49 430.059 17.866 C 430.059 19.342 429.807 20.674 429.303 21.862 C 428.799 23.05 428.097 24.022 427.197 24.778 C 426.297 25.534 425.235 26.038 424.011 26.29 L 424.011 26.56 C 425.271 26.812 426.432 27.271 427.494 27.937 C 428.556 28.603 429.411 29.557 430.059 30.799 C 430.707 32.041 431.031 33.67 431.031 35.686 C 431.031 38.026 430.491 40.024 429.411 41.68 C 428.331 43.336 426.81 44.596 424.848 45.46 C 422.886 46.324 420.537 46.756 417.801 46.756 L 404.409 46.756 L 404.409 8.2 L 415.749 8.2 Z M 416.397 23.914 C 418.737 23.914 420.357 23.482 421.257 22.618 C 422.157 21.754 422.607 20.476 422.607 18.784 C 422.607 17.056 422.076 15.814 421.014 15.058 C 419.952 14.302 418.269 13.924 415.965 13.924 L 411.645 13.924 L 411.645 23.914 L 416.397 23.914 Z M 411.645 29.476 L 411.645 40.978 L 416.937 40.978 C 419.385 40.978 421.086 40.438 422.04 39.358 C 422.994 38.278 423.471 36.838 423.471 35.038 C 423.471 33.886 423.264 32.896 422.85 32.068 C 422.436 31.24 421.743 30.601 420.771 30.151 C 419.799 29.701 418.449 29.476 416.721 29.476 L 411.645 29.476 Z"></path>
  </g>
</svg>